<?xml version="1.0" encoding="utf-8"?>
<!-- Generator: Adobe Illustrator 15.0.0, SVG Export Plug-In . SVG Version: 6.00 Build 0)  -->
<!DOCTYPE svg PUBLIC "-//W3C//DTD SVG 1.1//EN" "http://www.w3.org/Graphics/SVG/1.1/DTD/svg11.dtd">
<svg version="1.1" id="圖層_1" xmlns="http://www.w3.org/2000/svg" xmlns:xlink="http://www.w3.org/1999/xlink" x="0px" y="0px"
	 width="600px" height="400px" viewBox="0 0 600 400" enable-background="new 0 0 600 400" xml:space="preserve">
<text transform="matrix(1 0 0 1 280.9795 383.9238)" fill="#231815" font-family="'ArialRoundedMTBold'" font-size="35.3142">©LiyuChill</text>
<g>
	<path fill-rule="evenodd" clip-rule="evenodd" fill="#231815" d="M300.347,189.558c-4.921,4.064-8.85-3.893-14.278-1.143
		c5.52,2.286,8.357,7.254,11.423,11.994c-1.343,0.943-3.324,1.246-3.998,2.855c-0.176,2.871,0.659,6.752-1.143,7.996
		c-1.491-1.635,0.106-8.536-2.856-10.28c-2.271-0.498-2.869-0.498-5.14,0c0.771,7.055-1.867,10.698-2.856,15.992
		c-3.773,1.468-7.496-0.972-10.852-1.714c0.417-4.033-1.1-6.135-2.285-8.566c-3.065,0.74-1.251,6.363-3.998,7.425
		c-1.94-1.586-2.952-4.479-2.855-6.854c0.387-9.516,14.669-11.666,25.702-11.994c0.816-0.127-0.53-2.843,0-4.569
		c-6.09,1.335-14.032,0.818-19.419,2.856c-0.377-2.09,1.235-2.191,1.142-3.998c-4.526,0.199-11.396,5.111-14.278,0
		C261.291,178.175,295.716,172.208,300.347,189.558z"/>
	<path fill-rule="evenodd" clip-rule="evenodd" fill="#231815" d="M344.326,193.556c-3.975,0.547-4.566-2.288-7.996-2.285
		c-1.791,5.188,6.326,13.501-0.571,17.135c-1.862-1.589,0.702-5.759-0.571-6.854c-1.164-1.311-4.743-0.207-6.854-0.571
		c5.848,19.68-26.365,16.046-16.564-2.856c5.198-2.798,13.494-2.498,19.991-3.998c-1.693-2.525-6.373-2.021-9.71-1.713
		c-3.84,0.354-7.705,1.832-9.709,2.855C308.406,179.571,345.08,177.272,344.326,193.556z"/>
	<path fill-rule="evenodd" clip-rule="evenodd" fill="#231815" d="M181.545,206.12c6.766-0.862,10.074,1.731,9.139,8.568
		C187.218,212.253,183.788,209.78,181.545,206.12z"/>
	<path fill-rule="evenodd" clip-rule="evenodd" fill="#231815" d="M283.783,240.391c2.006,0.313,0.917,3.313,0.571,4.569
		c6.292,3.03,14.505,6.719,22.275,8.567c3.108,0.739,6.841-0.487,8.567,2.855c-15.7,5.215-25.426-7.88-39.41-9.138
		C276.276,242.784,281.637,243.193,283.783,240.391z"/>
	<path fill-rule="evenodd" clip-rule="evenodd" fill="#231815" d="M291.779,260.952c4.551,2.875,12.455,2.395,18.277,3.998
		C305.196,267.692,291.586,269.483,291.779,260.952z"/>
	<path fill-rule="evenodd" clip-rule="evenodd" fill="#231815" d="M379.738,351.767c-9.336,0.945-18.34,2.223-26.845,3.998
		c-1.737-1.773-0.317-4.502-0.571-6.854c-1.788-16.564-18.783-22.367-32.556-27.986c-2.604,1.988-3.299,5.583-5.712,7.996
		c-2.267,2.266-5.663,4.533-9.139,4.568c-6.096,0.063-8-4.684-12.565-7.996c-6.204,1.631-14.062,4.889-19.419,11.424
		c-4.256,5.189-9.188,15.8-7.426,22.846c1.09,4.361,5.838,5.537,10.852,6.854c-12.957,2.604-26.541,4.132-41.694,6.282
		c-4.538,0.645-10.011,2.969-13.137,2.285c-2.306-0.504-6.294-6.296-9.139-9.709c-18.707-22.449-38.013-51.403-50.833-78.25
		c-16.524-34.604-31.585-68.471-30.843-117.088c1.437-94.064,53.015-147.238,138.221-157.07
		c46.624-5.379,88.415,13.396,115.375,35.412c28.158,22.996,47.8,51.863,61.114,88.531c14.532,40.021,10.776,92.381-5.141,126.227
		C424.249,297.328,399.642,320.771,379.738,351.767z M324.336,160.999c-32.977-10.241-65.658-20.777-81.105-48.549
		c-6.894,14.27-14.92,27.912-21.704,42.838c-7.857,17.285-16.661,35.713-18.849,57.687c-3.268-9.297-6.74-18.39-8.566-29.13
		c-17.836-13.951-36.156,6.152-30.844,26.274c3.916,14.829,22.359,22.837,30.844,30.271c1.766,10.733,6.932,20.237,13.137,27.415
		c21.297,24.645,55.009,38.124,87.958,50.834c1.173,5.439,1.448,11.014,6.854,11.994c4.878,0.887,8.637-2.234,11.994-5.141
		c0.336-3.191-1.309-4.402-1.143-7.425c46.989-7.081,74.785-33.354,92.528-69.682c18.82-2.198,30.285-30.458,16.563-46.265
		c-2.135,10.621-4.304,21.207-7.996,30.271c5.683-23.821,0.491-47.038-10.852-58.829c-12.434-12.925-35.215-18.089-56.545-23.417
		c-22.079-5.516-44.586-9.766-60.543-18.277C297.502,142.657,312.675,152.667,324.336,160.999z"/>
</g>
</svg>
