<?xml version="1.0" encoding="utf-8"?>
<!-- Generator: Adobe Illustrator 15.0.0, SVG Export Plug-In . SVG Version: 6.00 Build 0)  -->
<!DOCTYPE svg PUBLIC "-//W3C//DTD SVG 1.1//EN" "http://www.w3.org/Graphics/SVG/1.1/DTD/svg11.dtd">
<svg version="1.1" id="圖層_1" xmlns="http://www.w3.org/2000/svg" xmlns:xlink="http://www.w3.org/1999/xlink" x="0px" y="0px"
	 width="600px" height="600px" viewBox="0 0 600 600" enable-background="new 0 0 600 600" xml:space="preserve">
<g>
	<path fill="#FFFFFF" d="M283.359,570.309l-19.579,7.694l13.877-36.148l1.507,0.483l-8.015,28.401l9.735-2.097v-6.134
		L283.359,570.309z"/>
	<path fill="#FFFFFF" d="M293.847,560.357l-3.119,12.748l-7.1,5.325l2.098-11.726l6.724-7.101L293.847,560.357z M300.196,540.562
		l-9.953,12.696l-0.646-8.876L300.196,540.562z"/>
	<path fill="#FFFFFF" d="M320.151,548.416l-21.569,37.762l-1.4-0.699l8.5-21.141l-4.357-12.964l1.291-0.859l6.992,6.132l9.253-9.199
		L320.151,548.416z"/>
	<path fill="#FFFFFF" d="M348.122,547.931l-5.593,31.363l-3.229-7.479l-10.92,5.756l-5.108-25.068l1.506-0.483l7.692,17.269
		l7.262-4.68l6.886-17.161L348.122,547.931z"/>
	<path fill="#FFFFFF" d="M371.846,577.301l-20.281-16.997l23.077-18.88l1.022,1.236l-14.954,17.644l11.296,14.311l4.626-2.1
		L371.846,577.301z"/>
	<path fill="#FFFFFF" d="M400.893,559.283l-2.959,17.375l-1.561,0.052l-1.991-9.575l-15.599,10.437l-1.131-1.075l19.581-34.642
		l1.507,0.59l-5.972,19.474L400.893,559.283z"/>
	<path fill="#FFFFFF" d="M413.211,560.357l-3.121,12.748l-7.102,5.325l2.098-11.726l6.725-7.101L413.211,560.357z M419.557,540.562
		l-9.952,12.696l-0.646-8.876L419.557,540.562z"/>
	<path fill="#FFFFFF" d="M443.547,547.931l-5.595,31.363l-3.227-7.479l-10.92,5.756l-5.11-25.068l1.507-0.483l7.693,17.269
		l7.259-4.68l6.886-17.161L443.547,547.931z"/>
	<path fill="#FFFFFF" d="M472.326,542.554l-8.822,4.842l-6.939,29.314l-1.668-0.162l2.689-27.808l-10.543-1.723l-0.054-1.614
		l24.799-4.41L472.326,542.554z"/>
	<path fill="#FFFFFF" d="M480.878,560.357l-3.119,12.748l-7.102,5.325l2.099-11.726l6.724-7.101L480.878,560.357z M487.226,540.562
		l-9.952,12.696l-0.646-8.876L487.226,540.562z"/>
	<path fill="#FFFFFF" d="M511.162,546.588l-0.7,36.524l-25.928,3.926l-0.321-1.506l17.804-5.703l3.498-9.197l-19.636-8.606
		L511.162,546.588z M505.729,563.746l-0.646-6.508l-8.554,3.659L505.729,563.746z"/>
	<path fill="#FFFFFF" d="M535.205,577.571l-20.601-13.499l25.712-17.484l1.937,18.826l-17.698-0.215l10.975,10.005l4.088-2.044
		L535.205,577.571z M523.211,563.692l-0.162,0.108l0.215,0.215L523.211,563.692z M537.195,560.088l-1.13-3.604l-12.531,6.994
		L537.195,560.088z"/>
	<path fill="#FFFFFF" d="M572.806,555.464l-8.821-1.884l-10.758,8.66l-7.909,14.904l-1.452-0.648l9.146-27.272l1.614,5.487
		l10.219-7.693L572.806,555.464z"/>
</g>
<g>
	<path fill-rule="evenodd" clip-rule="evenodd" fill="#FFFFFF" d="M295.06,280.859c-7.494,6.193-13.48-5.928-21.749-1.74
		c8.407,3.482,12.73,11.048,17.399,18.271c-2.044,1.434-5.063,1.896-6.09,4.35c-0.268,4.371,1.004,10.283-1.74,12.18
		c-2.271-2.493,0.162-13.004-4.35-15.661c-3.46-0.759-4.37-0.759-7.831,0c1.177,10.746-2.844,16.296-4.349,24.36
		c-5.748,2.233-11.418-1.482-16.529-2.609c0.633-6.146-1.677-9.347-3.481-13.05c-4.671,1.129-1.907,9.69-6.09,11.31
		c-2.958-2.416-4.499-6.822-4.35-10.439c0.589-14.498,22.343-17.773,39.148-18.27c1.244-0.193-0.808-4.332,0-6.961
		c-9.276,2.033-21.374,1.246-29.579,4.351c-0.573-3.182,1.883-3.336,1.74-6.09c-6.896,0.305-17.359,7.784-21.75,0
		C235.571,263.52,288.007,254.431,295.06,280.859z"/>
	<path fill-rule="evenodd" clip-rule="evenodd" fill="#FFFFFF" d="M362.052,286.949c-6.055,0.832-6.957-3.485-12.182-3.479
		c-2.728,7.898,9.638,20.563-0.87,26.1c-2.835-2.422,1.069-8.773-0.868-10.441c-1.775-1.996-7.227-0.316-10.441-0.87
		c8.907,29.977-40.162,24.443-25.229-4.349c7.916-4.263,20.555-3.807,30.449-6.09c-2.579-3.847-9.708-3.08-14.789-2.611
		c-5.849,0.537-11.736,2.791-14.79,4.351C307.338,265.648,363.197,262.148,362.052,286.949z"/>
	<path fill-rule="evenodd" clip-rule="evenodd" fill="#FFFFFF" d="M114.1,306.09c10.304-1.315,15.344,2.636,13.92,13.05
		C122.739,315.428,117.515,311.663,114.1,306.09z"/>
	<path fill-rule="evenodd" clip-rule="evenodd" fill="#FFFFFF" d="M269.831,358.289c3.054,0.477,1.396,5.046,0.869,6.959
		c9.584,4.617,22.096,10.235,33.931,13.052c4.736,1.126,10.421-0.741,13.05,4.35c-23.915,7.943-38.729-12.005-60.031-13.921
		C258.396,361.936,266.559,362.561,269.831,358.289z"/>
	<path fill-rule="evenodd" clip-rule="evenodd" fill="#FFFFFF" d="M282.011,389.609c6.93,4.379,18.971,3.648,27.84,6.09
		C302.447,399.879,281.715,402.603,282.011,389.609z"/>
	<path fill-rule="evenodd" clip-rule="evenodd" fill="#FFFFFF" d="M415.992,527.941c-14.223,1.439-27.936,3.384-40.892,6.09
		c-2.646-2.703-0.483-6.857-0.869-10.44c-2.725-25.23-28.612-34.069-49.591-42.631c-3.966,3.029-5.025,8.505-8.699,12.18
		c-3.454,3.454-8.627,6.908-13.92,6.961c-9.285,0.093-12.188-7.134-19.142-12.18c-9.449,2.481-21.417,7.445-29.58,17.398
		c-6.482,7.907-13.993,24.068-11.31,34.802c1.66,6.642,8.891,8.433,16.529,10.439c-19.736,3.968-40.429,6.294-63.511,9.572
		c-6.911,0.98-15.247,4.52-20.01,3.478c-3.51-0.766-9.585-9.59-13.918-14.79c-28.497-34.193-57.903-78.297-77.432-119.19
		c-25.17-52.711-48.111-104.297-46.98-178.35C38.854,107.996,117.421,27,247.21,12.028c71.017-8.194,134.674,20.403,175.741,53.939
		c42.891,35.025,72.811,78.996,93.092,134.851c22.134,60.963,16.413,140.718-7.83,192.271
		C483.79,445.018,446.31,480.725,415.992,527.941z M331.601,237.36c-50.23-15.601-100.011-31.651-123.54-73.951
		c-10.502,21.734-22.728,42.515-33.062,65.249c-11.968,26.333-25.378,54.4-28.709,87.872c-4.979-14.162-10.267-28.014-13.05-44.37
		c-27.167-21.252-55.074,9.37-46.98,40.021c5.965,22.588,34.058,34.785,46.98,46.109c2.689,16.35,10.559,30.825,20.01,41.761
		c32.44,37.539,83.791,58.07,133.981,77.431c1.785,8.285,2.206,16.776,10.439,18.27c7.43,1.35,13.156-3.403,18.271-7.829
		c0.511-4.862-1.993-6.705-1.74-11.31c71.575-10.786,113.913-50.807,140.939-106.142c28.668-3.348,46.131-46.394,25.231-70.471
		c-3.253,16.179-6.557,32.304-12.18,46.11c8.654-36.286,0.747-71.651-16.531-89.611c-18.938-19.686-53.64-27.555-86.13-35.669
		c-33.632-8.401-67.913-14.874-92.221-27.84C290.725,209.418,313.838,224.668,331.601,237.36z"/>
</g>
</svg>
