<?xml version="1.0" encoding="utf-8"?>
<!-- Generator: Adobe Illustrator 15.0.0, SVG Export Plug-In . SVG Version: 6.00 Build 0)  -->
<!DOCTYPE svg PUBLIC "-//W3C//DTD SVG 1.1//EN" "http://www.w3.org/Graphics/SVG/1.1/DTD/svg11.dtd">
<svg version="1.1" id="圖層_1" xmlns="http://www.w3.org/2000/svg" xmlns:xlink="http://www.w3.org/1999/xlink" x="0px" y="0px"
	 width="600px" height="600px" viewBox="0 0 600 600" enable-background="new 0 0 600 600" xml:space="preserve">
<g>
	<path fill-rule="evenodd" clip-rule="evenodd" fill="#FFFFFF" d="M162.674,94.817c41.8-24.801,103.94-42.931,171.798-39.551
		c40.948,2.041,78.311,14.34,107.527,28.427c5.462-5.487,5.697-13.466,9.888-19.774c21.301-32.075,79.639-46.639,114.943-12.36
		c35.138,34.119,22.136,105.091-27.191,116.179c10.839,26.676,23.343,50.311,23.483,85.281
		c0.362,90.753-70.669,138.33-142.134,160.673c7.218,15.274,23.886,40.082,23.483,66.742c-0.196,12.932-5.867,31.449-17.305,32.134
		c-15.072,0.903-18.087-18.969-28.427-25.955c-1.75,16.831-4.451,45.519-14.831,61.798c-5.332,8.359-17.363,19.147-27.191,17.304
		c-12.777-2.4-12.849-20.077-12.358-38.314c-5.804-0.963-18.896,0.652-28.427,0c-0.109,18.167,1.252,37.426-11.125,40.786
		c-29.201,7.925-42.917-50.024-43.258-74.157c-7.711,2.354-10.532,18.483-22.247,18.539c-11.027,0.051-17.449-15.589-18.539-27.19
		c-2.312-24.587,11.104-50.613,18.539-63.033C153.798,402.576,70.522,358.35,65.035,261.67
		c-2.118-37.313,9.545-63.865,22.247-88.988c-43.722-4.389-75.546-33.195-70.449-79.101c3.704-33.359,31.758-57.934,63.033-61.798
		C121.074,26.692,156.764,53.039,162.674,94.817z M137.956,113.357c6.224-4.881,18.336-11.118,19.775-16.068
		c2.04-7.017-4.036-22.574-8.652-29.663c-8.056-12.371-27.489-25.947-40.786-29.663c-21.687-6.06-43.203,1.468-56.854,9.888
		c6.159,17.376,28.684,19.604,30.899,39.551c-10.604,13.504-34.665-6.39-42.022-13.596c-2.829-2.77-4.474-9.716-8.652-7.416
		c-3.54,13.866,34.369,25.429,30.899,39.55c-3.832,15.595-27.893-0.833-32.135-3.708c-3.371-2.285-7.202-7.838-8.651-3.708
		c1.018,44.3,25.432,65.203,66.741,69.213C103.236,148.109,117.666,129.267,137.956,113.357z M448.18,86.166
		c27.059,14.959,51.84,32.673,70.449,54.381c6.549,7.639,10.938,16.653,18.539,23.483c27.413-10.488,46.241-29.564,45.73-67.978
		c-9.432,6.381-31.498,26.389-42.022,8.651c6.952-16.118,25.475-20.667,32.135-37.078c-7.111-1.574-11.36,9.463-18.54,14.831
		c-7.361,5.505-18.563,11.554-25.954,9.888c-19.404-4.375,3.437-21.182,8.651-25.955c7.638-6.993,11.598-11.871,16.067-18.54
		C514.329,22.479,453.882,44.461,448.18,86.166z M140.427,118.3c-37.252,30.257-68.851,71.59-70.449,131.011
		c-1.639,60.931,30.626,102.842,72.921,129.775c85.763,54.61,240.642,59.185,332.472,6.179
		c42.292-24.412,82.809-63.4,82.809-131.011c0-66.309-37.789-111.676-77.865-142.134c-39.513-30.029-88.895-47.519-147.078-51.91
		c0.838,4.517,1.724,8.987,1.236,14.832c12.645,4.998,34.875,3.609,33.37,17.304c-1.159,10.534-18.604,10.553-30.898,13.595
		c0,4.532,0,9.064,0,13.596c13.202,2.675,31.106,3.201,30.898,14.832c-0.208,11.44-19.063,11.688-32.135,14.832
		c-4.161,15.615-1.494,38.057-14.831,44.494c-12.192-7.171-10.947-27.78-13.597-44.494c-13.567-2.807-33.201-3.255-33.37-14.831
		c-0.167-11.441,18.508-12.592,32.135-14.832c0-4.531,0-9.064,0-13.596c-14.035-2.317-33.361-4.063-32.135-16.067
		c1.093-10.702,20.444-11.018,33.37-13.596c-0.942-6.71,1.959-9.578,1.237-16.067C234.498,61.932,183.896,82.994,140.427,118.3z
		 M412.337,414.929c-1.048,1.837-3.98,1.788-6.18,2.472c0.406,18.05-0.007,45.062-6.179,60.563
		c8.658,10.702,12.604,26.119,28.427,29.662C452.188,482.457,431.289,431.429,412.337,414.929z M259.079,424.816
		c-3.742,58.688,18.538,99.532,69.213,98.876c53.948-0.7,80.412-47.569,71.687-103.82
		C363.24,426.74,304.794,430.356,259.079,424.816z M245.483,422.345c-8.192,9.586-23.289,42.948-19.775,65.505
		c1.287,8.254,6.113,19.618,13.595,19.775c10.217,0.212,17.41-21.569,22.247-25.955c-6.768-15.067-7.15-36.521-7.416-58.09
		C250.234,424.184,249.771,421.352,245.483,422.345z M349.304,524.929c0.228,14.191-2.308,31.145,7.415,35.842
		c27.804-5.153,31.855-34.063,35.843-63.033c-0.277-0.961-0.034-2.438-1.235-2.472C382.51,510.344,369.227,520.955,349.304,524.929z
		 M288.741,559.534c21.382,14.76,24.51-11.596,22.248-33.37c-22.07-2.65-33.995-15.445-44.495-29.662
		C267.799,514.063,275.006,550.053,288.741,559.534z"/>
	<path fill-rule="evenodd" clip-rule="evenodd" fill="#FFFFFF" d="M240.539,159.087c4.626,0.729,3.826,6.887,7.416,8.651
		c3.57-1.785,1.932-8.779,7.416-8.651c0.271,4.672,3.885,6.002,4.943,9.887c4.39-1.79,3.295-9.064,8.651-9.887
		c2.519,8.193,8.114,13.311,11.124,21.011c-16.891,0-33.782,0-50.673,0C231.659,171.628,237.761,167.019,240.539,159.087z
		 M236.832,175.154c2.56-0.734,8.119,1.528,8.652-1.236c-2.907-0.389-0.734-5.858-4.944-4.944
		C239.815,171.545,237.942,172.969,236.832,175.154z M250.427,175.154c2.472,0,4.944,0,7.416,0c-0.698-3.01-1.059-6.358-4.944-6.18
		C252.369,171.328,250.236,172.079,250.427,175.154z M264.022,175.154c2.472,0,4.943,0,7.416,0c-0.773-2.935-1.662-5.753-4.944-6.18
		C265.965,171.328,263.832,172.079,264.022,175.154z"/>
	<path fill-rule="evenodd" clip-rule="evenodd" fill="#FFFFFF" d="M381.438,159.087c5.093,0.261,3.018,7.693,7.416,8.651
		c3.57-1.785,1.931-8.779,7.415-8.651c0.577,4.367,3.122,6.766,4.944,9.887c4.755-1.424,2.606-9.751,8.651-9.887
		c2.837,7.462,6.974,13.625,11.124,19.775c-14.426,2.879-34.192,0.415-50.675,1.236
		C372.625,171.697,378.365,166.725,381.438,159.087z M377.73,175.154c2.559-0.734,8.118,1.528,8.652-1.236
		c-2.906-0.389-0.734-5.858-4.944-4.944C380.328,171.159,378.455,172.583,377.73,175.154z M391.326,175.154c2.472,0,4.943,0,7.415,0
		c-0.772-2.935-1.663-5.753-4.943-6.18C393.267,171.328,391.136,172.079,391.326,175.154z M403.686,175.154
		c2.559-0.734,8.118,1.528,8.651-1.236c-2.906-0.389-0.733-5.858-4.943-4.944C406.668,171.545,404.796,172.969,403.686,175.154z"/>
	<path fill-rule="evenodd" clip-rule="evenodd" fill="#FFFFFF" d="M246.719,188.75c51.199-11.307,54.99,72.937,4.944,69.213
		C215.035,255.237,210.015,196.854,246.719,188.75z"/>
	<path fill-rule="evenodd" clip-rule="evenodd" fill="#FFFFFF" d="M387.618,188.75c21.609-4.772,37.506,8.426,40.787,24.719
		c5.059,25.142-13.056,46.086-35.844,44.494C356.699,255.458,349.69,197.125,387.618,188.75z"/>
	<path fill-rule="evenodd" clip-rule="evenodd" fill="#FFFFFF" d="M349.304,254.255c25.651,4.689,61.185,22.96,53.146,51.909
		c-7.598,27.356-65.979,29.705-102.585,25.955c-13.396-1.372-31.705-6.677-38.315-16.066
		c-20.714-29.429,19.418-58.787,50.674-61.798c5.907-4.29,8.783-10.815,17.305-11.124
		C338.274,242.814,343.37,249.736,349.304,254.255z M310.989,259.199c-25.487,5.24-50.774,20.923-49.439,42.022
		c1.416,22.383,32.902,26.183,53.147,27.191c28.146,1.403,79.105-3.061,84.044-23.483c2.4-9.924-2.711-20.582-7.415-25.955
		c-9.031-10.311-27.751-15.989-42.022-19.775C351.08,286.633,309.613,285.227,310.989,259.199z"/>
	<path fill-rule="evenodd" clip-rule="evenodd" fill="#FFFFFF" d="M171.326,256.727c16.867-2.373,52.689,2.271,51.91,24.719
		c-0.614,17.675-29.191,22.462-49.438,21.011c-12.684-0.91-32.236-6.463-34.606-16.067
		C134.464,267.239,151.548,259.509,171.326,256.727z"/>
	<path fill-rule="evenodd" clip-rule="evenodd" fill="#FFFFFF" d="M463.012,256.727c10.677-1.299,23.533-1.614,33.37,2.472
		c6.788,2.818,18.94,12.807,17.304,24.719c-3.204,23.297-80.107,27.277-84.045,0C427.148,266.66,442.42,259.231,463.012,256.727z"/>
</g>
<path fill="#FFFFFF" d="M106.001,544.887c35.224-0.414,63.438-29.273,63.025-64.453c-0.043-3.724-0.426-7.359-1.078-10.898
	l9.333-21.083l-17.2,0.2c-11.255-18.895-31.988-31.458-55.58-31.177c-35.221,0.414-63.439,29.27-63.021,64.455
	C41.893,517.111,70.781,545.3,106.001,544.887z M99.553,503.354c-1.673,0-2.474-1.427-2.474-4.265c0-2.841-0.133-7.005-0.27-12.691
	c-0.201-5.493-0.268-9.66-0.268-12.501c-2.608,4.924-5.55,11.462-8.897,19.415c-0.401,0.947-1.003,2.275-1.873,3.978
	c-0.873,1.706-1.605,2.559-2.212,2.559c-1.064,0-2.271-1.614-3.676-5.021c-1.602-3.982-4.083-10.037-7.357-18.09
	c-0.937,6.158-2.143,11.561-3.745,16.196c-2.411,7.007-5.153,10.42-8.234,10.42c-2.472,0-3.672-1.802-3.672-5.595
	c0-5.774,0.331-10.602,1.067-14.485c0.535,0.476,1.07,0.66,1.607,0.66c1.337,0,2.478-1.985,3.542-6.155
	c0.805-3.312,1.207-6.249,1.207-8.713c0-1.61-0.063-4.07-0.199-7.293c-0.132-3.219-0.132-5.684-0.132-7.389
	c0-1.704,1.471-2.651,4.481-2.651c2.607,0,4.279,1.424,5.015,4.17c0.937,3.978,2.541,9.094,4.749,15.437
	c2.812,8.333,4.682,12.41,5.755,12.41c0.602,0,1.204-0.572,1.87-1.801c0.538-0.946,1.407-2.938,2.611-5.968
	c2.075-5.304,3.341-8.619,3.814-9.944c1.338-3.789,2.479-7.2,3.277-10.419c0.401-1.702,0.803-2.746,1.337-3.219
	c0.402-0.377,1.271-0.666,2.477-0.666c3.746,0,5.618,0.852,5.618,2.559c0,2.273-0.133,5.589-0.336,9.943
	c-0.201,4.453-0.266,7.769-0.266,9.945c0,4.358,0.402,10.417,1.271,18.184c0.468,4.733,0.732,7.293,0.732,7.577
	C106.372,502.215,104.099,503.354,99.553,503.354z M160.027,488.143c-2.742,5.867-7.022,8.807-12.773,8.807
	c-1.876,0-3.348-0.474-4.284-1.614c-0.805-0.944-1.672-2.744-2.612-5.492c-2.879,4.743-5.414,7.014-7.626,7.014
	c-1.334,0-2.605-0.662-3.679-1.992c-0.466-0.474-1.41-1.892-2.812-4.261c-1.602,5.968-2.875,9.949-3.742,11.932
	c-2.01,4.548-4.415,6.915-7.09,6.915c-2.21,0-3.28-1.983-3.28-5.774c0-4.545,0.471-8.997,1.402-13.356
	c0.407,0.284,0.739,0.381,1.14,0.381c1.608,0,3.682-4.643,6.157-14.112c2.273-8.616,3.413-14.587,3.413-17.904
	c0-2.08,0.398-3.5,1.204-4.259c0.599-0.475,1.673-0.759,3.277-0.759c2.875,0,4.348,1.043,4.348,3.125
	c0,0.378-0.602,3.313-1.672,8.903c-1.205,5.873-1.743,10.04-1.743,12.502c0,4.832,1.208,7.199,3.682,7.199
	c2.676,0,5.083-3.503,7.227-10.701c0.533-1.612,1.736-6.82,3.681-15.63c0.535-2.461,2.134-3.791,4.813-3.791
	c0.668,0,1.407,0.286,2.208,0.856c0.802,0.566,1.205,1.231,1.205,2.083c0,0.568-0.733,3.596-2.072,9.284
	c-2.34,9.563-3.48,14.773-3.48,15.531c0,2.556,0.803,3.788,2.409,3.788c1.204,0,2.207-0.759,3.012-2.278
	c0.736-1.51,1.003-3.118,0.799-4.828c0.405-0.186,1.006-0.377,1.742-0.377c1.336,0,2.604,0.377,3.882,1.041
	c1.601,0.947,2.474,2.272,2.474,3.79C161.234,485.112,160.83,486.434,160.027,488.143z"/>
</svg>
