<?xml version="1.0" encoding="utf-8"?>
<!-- Generator: Adobe Illustrator 15.0.0, SVG Export Plug-In . SVG Version: 6.00 Build 0)  -->
<!DOCTYPE svg PUBLIC "-//W3C//DTD SVG 1.1//EN" "http://www.w3.org/Graphics/SVG/1.1/DTD/svg11.dtd">
<svg version="1.1" id="圖層_1" xmlns="http://www.w3.org/2000/svg" xmlns:xlink="http://www.w3.org/1999/xlink" x="0px" y="0px"
	 width="600px" height="600px" viewBox="0 0 600 600" enable-background="new 0 0 600 600" xml:space="preserve">
<g>
	<path fill-rule="evenodd" clip-rule="evenodd" fill="#FFFFFF" d="M444.39,549.982c-9.754-0.988-22.341,2.402-32.969,3.953
		c-3.823,0.56-8.427,0.084-11.207,1.319c-2.979,1.33-2.604,3.17-4.614,5.274c-1.58,1.658-3.646,2.727-5.934,3.956
		c-14.683,7.894-33.643,9.117-52.088,10.552c-10.152,0.789-20.263,1.742-30.326,1.319c-9.483-0.402-18.99-2.638-28.352-2.638
		c-7.679,0-15.469,2.146-23.075,3.295c-15.312,2.316-30.696,4.278-46.151,6.594c-7.562,1.131-15.104,1.557-21.757,4.614
		c-5.955-5.912-11.41-12.327-16.483-19.12c-8.404,3.438-15.974,14.339-30.989,11.868c-12.814-2.107-21.256-23.385-28.352-34.943
		c-20.334-33.133-35.55-66.261-58.018-98.896c-4.2-6.099-10.728-13.365-10.549-20.44c0.356-14.295,21.097-23.338,27.032-32.307
		c-7.909-18.904-14.368-38.599-19.78-59.995c-5.55-21.944-6.593-47.058-6.593-72.526c0-50.13,9.807-96.378,27.691-130.543
		C107.105,64.014,174.594,17.123,265.715,8.687c76.847-7.117,141.479,20.917,184.608,56.042
		c43.645,35.547,77.797,86.618,97.577,141.093c11.305,31.133,15.553,67.935,15.163,104.831
		c-0.385,36.696-10.195,69.657-22.415,96.921C515.755,463.111,475.202,500.639,444.39,549.982z M229.451,412.845
		c12.366,22.673,27.249,44.036,38.901,66.591c7.383,2.771,14.393,5.899,21.756,8.569c7.336,2.664,15.347,7.177,23.077,7.912
		c5.763,0.551,13.149-1.086,19.779-1.977c69.562-9.335,114.739-46.581,141.751-97.578c10.662-20.125,19.753-42.277,21.098-66.591
		c1.507-27.184-4.253-46.875-17.8-61.974c-8.879-9.895-22.149-16.293-36.923-21.758c-14.277-5.282-29.045-9.835-44.833-13.845
		c-21.701-5.513-48.532-11.042-70.546-17.802c-6.747-2.072-17.409-6.875-20.437-6.593c0.216-0.02,0.44,0.016,0.656,0
		c17.376,16.37,40.904,30.102,59.339,42.855c-55.936-15.109-113.873-34.387-140.433-77.798
		c-16.401,31.904-36.154,69.309-50.109,106.15c-4.973,13.124-10.846,27.101-11.868,40.877c-0.743,10.028,2.236,16.246,1.978,23.736
		c-8.178-18.197-15.275-37.471-19.779-59.34c-6.674-3.811-12.022-8.501-22.417-7.251c-15.896,1.91-26.518,21.464-24.396,40.217
		c1.707,15.077,13.609,25.591,22.419,32.964c3.478-3.319,6.962-5.853,11.865-9.228c3.56-2.453,9.019-7.796,13.847-7.254
		c5.592,0.631,6.943,7.652,9.891,13.187c2.505,4.706,6.571,9.88,13.184,9.892c8.488,0.015,10.179-6.665,19.781-8.573
		C206.484,366.551,217.168,390.326,229.451,412.845z M494.495,364.057c18.721-8.787,31.621-43.4,15.163-63.293
		C507.033,323.851,499.309,345.354,494.495,364.057z M141.763,339.002c-7.708,7.757-16.36,15.615-25.053,23.075
		c-16.448,14.118-32.891,27.073-48.131,41.54c-7.69,7.299-16.935,14.145-20.439,25.052c6.845,1.185,8.788-5.278,12.527-8.57
		c3.388-2.982,7.107-5.715,10.549-8.569c24.797-20.581,48.187-41.558,72.524-61.979c3.091,1.965,5.917,4.191,11.209,3.956
		C151.73,347.497,151.041,338.954,141.763,339.002z M81.107,426.031c27.36,46.924,54.548,94.015,83.073,139.772
		c37.981-19.818,74.297-41.299,108.127-65.272c-10.139-27.201-26.364-50.81-40.218-75.161
		c-10.524-18.494-21.113-37.015-31.646-54.72c-3.504-5.892-6.431-12.538-11.869-17.144
		C152.335,377.268,117.446,402.375,81.107,426.031z M60.667,430.646c39.263-20.075,73.463-45.21,107.467-70.545
		c-10.059,0.39-17.262-2.075-23.734-5.274C116.295,379.622,84.13,403.729,60.667,430.646z M118.686,499.873
		c-13.755-23.763-27.368-47.57-42.854-69.886c-5.735,1.527-15.271,4.947-22.417,7.251c19.206,26.915,39.507,68.845,58.677,101.534
		c6.655,11.351,13.303,24.892,21.757,32.31c7.905,6.933,19.113,6.096,26.374,0C147.219,546.86,132.447,523.645,118.686,499.873z
		 M308.57,498.555c0.765,4.289,2.524,7.588,2.638,12.528c5.869,8.014,19.189,3.433,23.733-2.637
		c-1.398-3.218-0.948-8.281-3.296-10.553C325,498.867,314.521,501.043,308.57,498.555z M317.801,519.653
		c-4.218-0.599-7.319-3.141-9.89-5.274c-2.673-2.218-4.269-5.62-7.913-7.252c-22.949,7.82-38.6,22.936-39.559,52.744
		c5.858,7.864,17.652,9.874,29.009,11.211c12.224,1.438,25.512,1.363,38.24,0.654c25.458-1.408,51.728-3.899,65.931-14.502
		c5.631-38.194-23.617-47.118-48.788-56.703C339.972,510.179,331.407,521.582,317.801,519.653z"/>
	<path fill-rule="evenodd" clip-rule="evenodd" fill="#FFFFFF" d="M314.504,267.138c-2.052,2.806-5.27-0.69-7.252-1.318
		c-12.14-3.845-28.608-6.452-46.154-5.275c-20.066,1.346-36.074,9.116-50.767,16.483c-1.292,0.646-3.383,4.452-5.275,1.319
		c-0.478-3.856,6.146-5.979,9.891-7.914c16.698-8.622,37.719-15.556,65.272-13.845c9.16,0.569,20.848,2.694,29.011,5.934
		C311.062,263.249,316.012,263.995,314.504,267.138z"/>
	<path fill-rule="evenodd" clip-rule="evenodd" fill="#FFFFFF" d="M471.419,275.048c-3.243,2.17-7.199-1.198-9.889-2.637
		c-11.25-6.011-26.191-11.886-46.151-10.548c-14.467,0.97-28.005,5.615-38.242,11.207c-2.749,1.502-5.621,5.888-9.229,3.958
		c-1.011-4.091,4.852-5.648,7.91-7.252c12.66-6.637,29.846-13.271,50.769-11.868c13.653,0.915,26.277,5.452,36.263,10.549
		C466.048,270.088,470.959,271.238,471.419,275.048z"/>
	<path fill-rule="evenodd" clip-rule="evenodd" fill="#FFFFFF" d="M296.702,296.147c-2.874,2.235-4.705-1.193-6.593-2.637
		c-7.613-5.824-17.475-13.849-33.625-11.868c-13.44,1.649-21.463,10.28-29.009,19.122c-2.693-1.718-8.458-5.1-5.934-7.913
		c2.458-2.128,2.684,2.198,5.273,1.978c8.771-9.119,21.421-18.932,38.901-17.141c9.855,1.009,19.994,6.471,26.371,11.866
		C294.054,291.218,296.812,293.805,296.702,296.147z"/>
	<path fill-rule="evenodd" clip-rule="evenodd" fill="#FFFFFF" d="M455.597,295.488c3.003-0.107,3.472-5.083,5.934-1.978
		c0.939,3.315-3.781,6.197-6.593,7.911c-9.703-16.758-33.952-25.271-54.064-13.845c-2.548,1.447-5.782,3.535-7.91,5.275
		c-1.809,1.479-3.412,6.386-6.594,3.957c-1.857-3.172,2.826-5.107,4.614-6.594c5.698-4.735,14.181-10.335,23.737-11.867
		C432.147,275.55,447.235,285.443,455.597,295.488z"/>
	<path fill-rule="evenodd" clip-rule="evenodd" fill="#FFFFFF" d="M298.019,345.595c-15.9-0.859-24.811-11.579-40.876-9.23
		c-11.092,1.622-18.431,9.954-30.329,8.573c-6.188-3.316-4.401-10.585-3.955-15.166c2.103-21.644,18.431-40.309,44.175-37.58
		c17.171,1.82,32.902,17.368,34.941,35.604C302.592,333.302,303.108,340.895,298.019,345.595z M227.475,341.639
		c10.778-0.869,17.387-5.908,25.712-9.23c-6.33-2.798-11.96-9.886-11.867-18.461c0.067-6.123,3.895-10.55,5.275-14.503
		C234.044,306.675,222.996,321.692,227.475,341.639z M270.988,333.069c9.629,1.801,14.805,8.055,25.714,8.569
		c5.235-20.068-7.017-37.291-19.778-41.536C287.577,308.009,282.35,330.119,270.988,333.069z"/>
	<path fill-rule="evenodd" clip-rule="evenodd" fill="#FFFFFF" d="M382.413,344.938c-9.014-20.738,5.175-42.534,20.438-49.45
		c26.751-12.121,52.605,7.693,56.042,32.307c0.738,5.283,1.695,12.409-3.297,17.143c-12.224,1.982-19.548-6.853-30.328-8.573
		c-3.689-0.586-8.057-0.449-11.21,0C403.035,337.942,395.045,346.997,382.413,344.938z M385.051,341.64
		c11.412-0.894,17.3-7.314,27.688-9.231c-5.496-2.952-10.298-7.543-11.207-15.163c-0.943-7.912,2.514-13.169,5.274-16.481
		c0.404-0.485,3.521-2.519,1.319-3.299C392.841,303.645,379.164,320.74,385.051,341.64z M429.884,333.728
		c8.914,1.637,13.498,7.599,23.734,7.912c5.401-15.837-4.009-31.929-13.846-38.899C446.921,314.561,440.182,329.769,429.884,333.728
		z"/>
	<path fill-rule="evenodd" clip-rule="evenodd" fill="#FFFFFF" d="M139.125,331.09c-1.319,0-2.637,0-3.956,0
		c0.889-10.025-2.069-13.865-9.229-15.163c-2.412-0.438-6.138,2.824-7.254-1.319c2.496-4.033,11.594-2.39,14.506-0.66
		C138.195,316.927,139.598,323.961,139.125,331.09z"/>
	<path fill-rule="evenodd" clip-rule="evenodd" fill="#FFFFFF" d="M344.173,349.551c4.748-6.724,14.756-10.861,12.526-21.756
		c-1.618-7.915-11.212-11.695-19.121-7.912c-3.241,1.551-5.476,5.729-9.229,4.613c-0.75-3.349,3.853-6.373,6.593-7.912
		c11.131-6.238,21.545,0.652,25.714,9.231c0.87,8.644-2.17,14.859-6.594,19.78C351.323,348.644,346.788,353.194,344.173,349.551z"/>
	<path fill-rule="evenodd" clip-rule="evenodd" fill="#FFFFFF" d="M389.007,369.992c0.56-0.122,0.622,0.256,0.659,0.658
		c-7.94,19.779-22.952,49.106-51.426,41.536c-18.321-4.87-30.599-22.441-40.879-36.262
		C324.357,384.013,369.605,386.671,389.007,369.992z M307.911,382.518c2.142,5.745,8.522,11.05,14.504,15.821
		c6.294,5.025,12.852,9.734,21.101,10.553c22.078,2.182,29.508-16.494,38.238-28.354c-0.076-0.804-0.196-1.56-1.317-1.318
		C362.604,388.897,329.943,387.29,307.911,382.518z"/>
	<path fill-rule="evenodd" clip-rule="evenodd" fill="#FFFFFF" d="M169.453,422.075c-2.245,0.051-2.455-1.938-3.295-3.295
		c4.06-4.293,7.209-9.493,10.549-14.506c8.994-3.602,10.929,10.517,14.504,3.956c-0.669,0.429-0.68,1.519-1.977,1.318
		c0.553-0.765,0.871-1.765,0.657-3.295c-0.538-1.604-3.474,1.307-4.613-0.66c0.263-2.504,3.031-2.501,1.319-5.275
		c-2.193,0.885-2.756,3.396-5.935,3.299c-1.571-2.754,1.739-5.514,2.637-7.915c-0.412-2.444-1.854-3.858-2.637-5.933
		c-0.813,0.288-1.354,0.845-1.319,1.979c-3.495-2.777,0.768-5.841,5.275-4.617c0.577,1.84,1.578,3.26,1.979,5.274
		c3.161-0.994,6.36-4.036,10.548-1.977c2.176,4.197,2.82,9.925,2.637,16.482c-0.865,0.673-2.43,0.646-3.296,1.318
		c5.446,12.577,14.334,21.709,19.12,34.943c-9.633-7.947-14.424-20.738-21.758-30.987c-1.786,0.411-1.64,2.754-3.957,2.638
		c-5.014-0.696-5.499-5.93-9.229-7.912c-2.935,0.143-2.713,3.444-4.616,4.617c0.185,1.354,1.762,1.313,2.638,1.976
		c0.489,8.522,6.967,11.053,8.57,18.459c-8.454-1.432-8.17-11.604-12.526-17.14C172.32,416.592,172.258,420.706,169.453,422.075z
		 M194.509,397.682c-0.833-2.024-1.001-4.713-3.298-5.275C186.792,395.996,190.276,398.625,194.509,397.682z M195.167,404.936
		c1.304-1.635,0.153-5.033-0.658-6.597C194.16,400.554,191.601,404.325,195.167,404.936z"/>
	<path fill-rule="evenodd" clip-rule="evenodd" fill="#FFFFFF" d="M174.729,399c-0.512,6.081-3.446,9.739-5.933,13.845
		c-1.405-0.212,0.104-2.876,0.657-3.296c-1.083-1.113-3.575-0.818-4.614-1.976C167.701,404.28,168.28,398.705,174.729,399z"/>
	<path fill-rule="evenodd" clip-rule="evenodd" fill="#FFFFFF" d="M187.916,422.733c-5.699,1.429-6.55-7.442-9.231-11.204
		C184.079,410.832,185.569,417.292,187.916,422.733z"/>
	<path fill-rule="evenodd" clip-rule="evenodd" fill="#FFFFFF" d="M172.09,419.438c5.425-0.05,7.431,6.505,5.935,11.208
		c-2.262-0.28-2.958-3.331-3.955-5.275C173.062,423.409,171.385,421.173,172.09,419.438z"/>
	<path fill-rule="evenodd" clip-rule="evenodd" fill="#FFFFFF" d="M139.785,424.052c-3.253,4.004-6.734,7.772-9.89,11.868
		c-1.076-2.197,1.867-6.028,1.978-9.23c-1.304-1.11-4.117-0.718-5.934-1.319C127.976,421.337,138.472,417.533,139.785,424.052z"/>
	<path fill-rule="evenodd" clip-rule="evenodd" fill="#FFFFFF" d="M170.771,431.306c-1.362,5.6,1.062,11.067-2.637,13.848
		c5.284,2.491,4.124-6.754,10.55-5.274c2.365,4.492-2.578,5.793-3.956,8.569c5.506,2.753,12.253,7.355,19.781,5.933
		c-0.633-2.004-0.778-4.495-2.637-5.272c2.42-1.064,3.695,2.813,5.273,4.614c1.646,1.875,4.933,3.548,4.615,6.594
		c-10.625,2.065-19.194-3.069-26.371-6.594c-1.423,8.028-0.784,18.119-7.255,21.099c-5.569-1.423-7.804-10.037-10.546-15.166
		c-2.012-3.757-4.644-7.588-4.618-11.864c1.711-1.519,3.045,1.339,4.618,1.976c2.336-1.512,3.388-4.366,3.295-6.593
		c2.869,0.67,3.032-1.366,4.615-1.977c0.454-2.652-0.633-3.763-0.66-5.936c-5.547,3.024-7.344,9.797-14.506,11.211
		c0.112,1.866,1.21,2.743,1.318,4.612c-4.027,0.513-5.76-1.271-7.91-2.637c-5.329,3.902-7.435,11.025-12.528,15.163
		c-2.87-0.646-4.056-2.974-4.614-5.933c-0.03-1.685,0.49-0.804,1.318-0.661c0.056-4.45-0.616-8.174-1.318-11.864
		c-0.532-2.327-4.024-1.69-3.956-4.616c3.136-0.715,5.981-1.777,9.23-0.658c1.134,2.818,1.614,6.296,1.319,10.546
		c1.704,0.798,3.57-3.878,5.275-5.271c-0.586-1.616-3.684-0.714-3.299-3.301c5.032-2.141,12.198-1.444,13.845,3.301
		C155.329,440.215,158.197,425.688,170.771,431.306z M161.542,456.36c1.491-2.908,4.987-3.805,5.934-7.252
		c-0.941-0.16-1.113-1.085-1.978-1.317C164.845,451.073,158.1,453.098,161.542,456.36z M163.521,462.293
		c1.663,1.196,1.634,4.077,3.296,5.274c3.182-4.29,6.299-8.645,7.253-15.163C168.9,451.672,166.626,458.84,163.521,462.293z"/>
	<path fill-rule="evenodd" clip-rule="evenodd" fill="#FFFFFF" d="M112.093,434.602c2.585-1.677,7.938-0.482,9.231,1.318
		c0.37,6.629-5.363,11.987-11.208,14.505C111.391,446.428,115.343,438.813,112.093,434.602z"/>
</g>
</svg>
